<svg xmlns="http://www.w3.org/2000/svg" viewBox="0 0 800 500" width="800" height="500">
  <defs>
    <linearGradient id="bgGrad" x1="0" y1="0" x2="0" y2="1">
      <stop offset="0%" stop-color="#E8F4FD"/>
      <stop offset="100%" stop-color="#F0F8FF"/>
    </linearGradient>
    <linearGradient id="blueGrad" x1="0" y1="0" x2="0" y2="1">
      <stop offset="0%" stop-color="#409EFF"/>
      <stop offset="100%" stop-color="#2B7ED9"/>
    </linearGradient>
    <linearGradient id="orangeGrad" x1="0" y1="0" x2="0" y2="1">
      <stop offset="0%" stop-color="#F5A623"/>
      <stop offset="100%" stop-color="#E0901A"/>
    </linearGradient>
    <linearGradient id="purpleGrad" x1="0" y1="0" x2="0" y2="1">
      <stop offset="0%" stop-color="#9B59B6"/>
      <stop offset="100%" stop-color="#7D3C98"/>
    </linearGradient>
    <linearGradient id="greenGrad" x1="0" y1="0" x2="0" y2="1">
      <stop offset="0%" stop-color="#48C774"/>
      <stop offset="100%" stop-color="#36A85E"/>
    </linearGradient>
  </defs>

  <!-- 背景 -->
  <rect width="800" height="500" fill="url(#bgGrad)" rx="8"/>

  <!-- 标题 -->
  <text x="400" y="38" text-anchor="middle" font-family="sans-serif" font-size="20" font-weight="bold" fill="#1a1a2e">AI 幻觉类型分类树</text>

  <!-- 根节点 -->
  <rect x="320" y="58" width="160" height="40" rx="20" fill="#409EFF" opacity="0.9"/>
  <text x="400" y="84" text-anchor="middle" font-family="sans-serif" font-size="15" font-weight="bold" fill="#fff">幻觉类型</text>

  <!-- 连接线：根节点到四个分支 -->
  <line x1="370" y1="98" x2="370" y2="118" stroke="#1a1a2e" stroke-width="1.5" opacity="0.4"/>
  <line x1="400" y1="98" x2="400" y2="118" stroke="#1a1a2e" stroke-width="1.5" opacity="0.4"/>
  <line x1="430" y1="98" x2="430" y2="118" stroke="#1a1a2e" stroke-width="1.5" opacity="0.4"/>
  <line x1="400" y1="98" x2="400" y2="118" stroke="#1a1a2e" stroke-width="1.5" opacity="0.4"/>

  <!-- 水平连接线 -->
  <line x1="120" y1="118" x2="680" y2="118" stroke="#1a1a2e" stroke-width="1.5" opacity="0.4"/>

  <!-- 垂直连接线到各分支 -->
  <line x1="160" y1="118" x2="160" y2="148" stroke="#1a1a2e" stroke-width="1.5" opacity="0.4"/>
  <line x1="320" y1="118" x2="320" y2="148" stroke="#1a1a2e" stroke-width="1.5" opacity="0.4"/>
  <line x1="480" y1="118" x2="480" y2="148" stroke="#1a1a2e" stroke-width="1.5" opacity="0.4"/>
  <line x1="640" y1="118" x2="640" y2="148" stroke="#1a1a2e" stroke-width="1.5" opacity="0.4"/>

  <!-- ========== 第1分支：事实性（蓝色） ========== -->
  <rect x="90" y="148" width="140" height="44" rx="10" fill="url(#blueGrad)"/>
  <text x="160" y="168" text-anchor="middle" font-family="sans-serif" font-size="14" font-weight="bold" fill="#fff">事实性</text>
  <text x="160" y="184" text-anchor="middle" font-family="sans-serif" font-size="11" fill="#E0F0FF">Factual</text>

  <!-- 子节点连接线 -->
  <line x1="120" y1="192" x2="120" y2="218" stroke="#1a1a2e" stroke-width="1.2" opacity="0.3"/>
  <line x1="160" y1="192" x2="160" y2="218" stroke="#1a1a2e" stroke-width="1.2" opacity="0.3"/>
  <line x1="200" y1="192" x2="200" y2="218" stroke="#1a1a2e" stroke-width="1.2" opacity="0.3"/>

  <!-- 子节点 -->
  <rect x="75" y="218" width="90" height="36" rx="8" fill="#EBF5FF" stroke="#409EFF" stroke-width="1.2"/>
  <text x="120" y="235" text-anchor="middle" font-family="sans-serif" font-size="12" fill="#1a1a2e">实体捏造</text>
  <text x="120" y="249" text-anchor="middle" font-family="sans-serif" font-size="9" fill="#666">Entity Fabrication</text>

  <rect x="175" y="218" width="90" height="36" rx="8" fill="#EBF5FF" stroke="#409EFF" stroke-width="1.2"/>
  <text x="220" y="235" text-anchor="middle" font-family="sans-serif" font-size="12" fill="#1a1a2e">数据捏造</text>
  <text x="220" y="249" text-anchor="middle" font-family="sans-serif" font-size="9" fill="#666">Data Fabrication</text>

  <rect x="115" y="262" width="90" height="36" rx="8" fill="#EBF5FF" stroke="#409EFF" stroke-width="1.2"/>
  <text x="160" y="279" text-anchor="middle" font-family="sans-serif" font-size="12" fill="#1a1a2e">归因错误</text>
  <text x="160" y="293" text-anchor="middle" font-family="sans-serif" font-size="9" fill="#666">Attribution Errors</text>

  <!-- 图标：事实性 -->
  <circle cx="160" cy="158" r="6" fill="#fff" opacity="0.3"/>

  <!-- ========== 第2分支：逻辑性（橙色） ========== -->
  <rect x="250" y="148" width="140" height="44" rx="10" fill="url(#orangeGrad)"/>
  <text x="320" y="168" text-anchor="middle" font-family="sans-serif" font-size="14" font-weight="bold" fill="#fff">逻辑性</text>
  <text x="320" y="184" text-anchor="middle" font-family="sans-serif" font-size="11" fill="#FFF3E0">Logical</text>

  <!-- 子节点连接线 -->
  <line x1="280" y1="192" x2="280" y2="218" stroke="#1a1a2e" stroke-width="1.2" opacity="0.3"/>
  <line x1="320" y1="192" x2="320" y2="218" stroke="#1a1a2e" stroke-width="1.2" opacity="0.3"/>
  <line x1="360" y1="192" x2="360" y2="218" stroke="#1a1a2e" stroke-width="1.2" opacity="0.3"/>

  <rect x="235" y="218" width="90" height="36" rx="8" fill="#FFF8E1" stroke="#F5A623" stroke-width="1.2"/>
  <text x="280" y="235" text-anchor="middle" font-family="sans-serif" font-size="12" fill="#1a1a2e">因果倒置</text>
  <text x="280" y="249" text-anchor="middle" font-family="sans-serif" font-size="9" fill="#666">Causal Inversion</text>

  <rect x="335" y="218" width="90" height="36" rx="8" fill="#FFF8E1" stroke="#F5A623" stroke-width="1.2"/>
  <text x="380" y="235" text-anchor="middle" font-family="sans-serif" font-size="12" fill="#1a1a2e">循环论证</text>
  <text x="380" y="249" text-anchor="middle" font-family="sans-serif" font-size="9" fill="#666">Circular Reasoning</text>

  <rect x="275" y="262" width="90" height="36" rx="8" fill="#FFF8E1" stroke="#F5A623" stroke-width="1.2"/>
  <text x="320" y="279" text-anchor="middle" font-family="sans-serif" font-size="12" fill="#1a1a2e">错误类比</text>
  <text x="320" y="293" text-anchor="middle" font-family="sans-serif" font-size="9" fill="#666">False Analogy</text>

  <!-- ========== 第3分支：忠实性（紫色） ========== -->
  <rect x="410" y="148" width="140" height="44" rx="10" fill="url(#purpleGrad)"/>
  <text x="480" y="168" text-anchor="middle" font-family="sans-serif" font-size="14" font-weight="bold" fill="#fff">忠实性</text>
  <text x="480" y="184" text-anchor="middle" font-family="sans-serif" font-size="11" fill="#F3E5F5">Faithfulness</text>

  <!-- 子节点连接线 -->
  <line x1="450" y1="192" x2="450" y2="218" stroke="#1a1a2e" stroke-width="1.2" opacity="0.3"/>
  <line x1="510" y1="192" x2="510" y2="218" stroke="#1a1a2e" stroke-width="1.2" opacity="0.3"/>

  <rect x="405" y="218" width="90" height="36" rx="8" fill="#F3E5F5" stroke="#9B59B6" stroke-width="1.2"/>
  <text x="450" y="235" text-anchor="middle" font-family="sans-serif" font-size="12" fill="#1a1a2e">上下文矛盾</text>
  <text x="450" y="249" text-anchor="middle" font-family="sans-serif" font-size="9" fill="#666">Context Contradiction</text>

  <rect x="505" y="218" width="90" height="36" rx="8" fill="#F3E5F5" stroke="#9B59B6" stroke-width="1.2"/>
  <text x="550" y="235" text-anchor="middle" font-family="sans-serif" font-size="12" fill="#1a1a2e">忽略指令</text>
  <text x="550" y="249" text-anchor="middle" font-family="sans-serif" font-size="9" fill="#666">Instruction Ignoring</text>

  <!-- ========== 第4分支：格式性（绿色） ========== -->
  <rect x="570" y="148" width="140" height="44" rx="10" fill="url(#greenGrad)"/>
  <text x="640" y="168" text-anchor="middle" font-family="sans-serif" font-size="14" font-weight="bold" fill="#fff">格式性</text>
  <text x="640" y="184" text-anchor="middle" font-family="sans-serif" font-size="11" fill="#E8F5E9">Format</text>

  <!-- 子节点连接线 -->
  <line x1="610" y1="192" x2="610" y2="218" stroke="#1a1a2e" stroke-width="1.2" opacity="0.3"/>
  <line x1="670" y1="192" x2="670" y2="218" stroke="#1a1a2e" stroke-width="1.2" opacity="0.3"/>

  <rect x="565" y="218" width="90" height="36" rx="8" fill="#E8F5E9" stroke="#48C774" stroke-width="1.2"/>
  <text x="610" y="235" text-anchor="middle" font-family="sans-serif" font-size="12" fill="#1a1a2e">JSON 错误</text>
  <text x="610" y="249" text-anchor="middle" font-family="sans-serif" font-size="9" fill="#666">JSON Errors</text>

  <rect x="665" y="218" width="90" height="36" rx="8" fill="#E8F5E9" stroke="#48C774" stroke-width="1.2"/>
  <text x="710" y="235" text-anchor="middle" font-family="sans-serif" font-size="12" fill="#1a1a2e">不可运行代码</text>
  <text x="710" y="249" text-anchor="middle" font-family="sans-serif" font-size="9" fill="#666">Non-runnable Code</text>

  <!-- 标注：底部说明 -->
  <rect x="200" y="340" width="400" height="34" rx="8" fill="#1a1a2e" opacity="0.06"/>
  <text x="400" y="362" text-anchor="middle" font-family="sans-serif" font-size="13" fill="#1a1a2e" opacity="0.7">💡 了解 AI 幻觉类型有助于构建更可靠的 AI 系统</text>

  <!-- 标注：底部标签 -->
  <rect x="50" y="400" width="700" height="80" rx="10" fill="#1a1a2e" opacity="0.04"/>
  <text x="400" y="425" text-anchor="middle" font-family="sans-serif" font-size="13" font-weight="bold" fill="#1a1a2e">标注</text>

  <circle cx="120" cy="445" r="6" fill="#409EFF"/>
  <text x="135" y="449" font-family="sans-serif" font-size="12" fill="#1a1a2e">事实性幻觉：编造不实信息</text>

  <circle cx="320" cy="445" r="6" fill="#F5A623"/>
  <text x="335" y="449" font-family="sans-serif" font-size="12" fill="#1a1a2e">逻辑性幻觉：推理链条断裂</text>

  <circle cx="520" cy="445" r="6" fill="#9B59B6"/>
  <text x="535" y="449" font-family="sans-serif" font-size="12" fill="#1a1a2e">忠实性幻觉：偏离原始指令</text>

  <circle cx="680" cy="445" r="6" fill="#48C774"/>
  <text x="695" y="449" font-family="sans-serif" font-size="12" fill="#1a1a2e">格式性幻觉：输出格式违规</text>

  <!-- 底部装饰线 -->
  <line x1="100" y1="480" x2="700" y2="480" stroke="#1a1a2e" stroke-width="0.5" opacity="0.1"/>
</svg>