<svg xmlns="http://www.w3.org/2000/svg" viewBox="0 0 800 500" width="800" height="500">
  <defs>
    <linearGradient id="bgGrad" x1="0" y1="0" x2="0" y2="1">
      <stop offset="0%" stop-color="#E8F4FD"/>
      <stop offset="100%" stop-color="#F0F8FF"/>
    </linearGradient>
    <linearGradient id="leftGrad" x1="0" y1="0" x2="0" y2="1">
      <stop offset="0%" stop-color="#409EFF"/>
      <stop offset="100%" stop-color="#6BB5FF"/>
    </linearGradient>
    <linearGradient id="rightGrad" x1="0" y1="0" x2="0" y2="1">
      <stop offset="0%" stop-color="#409EFF"/>
      <stop offset="100%" stop-color="#6BB5FF"/>
    </linearGradient>
    <linearGradient id="badgeGrad" x1="0" y1="0" x2="1" y2="1">
      <stop offset="0%" stop-color="#FFD700"/>
      <stop offset="100%" stop-color="#FFA500"/>
    </linearGradient>
  </defs>

  <!-- 背景 -->
  <rect width="800" height="500" fill="url(#bgGrad)" rx="12"/>

  <!-- 标题 -->
  <text x="400" y="32" text-anchor="middle" font-family="Arial, sans-serif" font-size="18" font-weight="bold" fill="#1a1a2e">版本管理与A/B测试工作流</text>

  <!-- ========== 左侧：版本管理 ========== -->
  <rect x="30" y="50" width="360" height="210" rx="10" fill="white" stroke="#409EFF" stroke-width="1.5" opacity="0.9"/>
  <rect x="30" y="50" width="360" height="32" rx="10" fill="url(#leftGrad)" opacity="0.85"/>
  <rect x="30" y="72" width="360" height="10" rx="0" fill="url(#leftGrad)" opacity="0.85"/>
  <text x="210" y="72" text-anchor="middle" font-family="Arial, sans-serif" font-size="14" font-weight="bold" fill="white">版本管理 / Version Management</text>

  <!-- Git分支树 -->
  <line x1="80" y1="110" x2="80" y2="190" stroke="#409EFF" stroke-width="2"/>
  <line x1="80" y1="130" x2="140" y2="130" stroke="#409EFF" stroke-width="1.5"/>
  <line x1="80" y1="160" x2="140" y2="160" stroke="#409EFF" stroke-width="1.5"/>
  <line x1="80" y1="190" x2="140" y2="190" stroke="#409EFF" stroke-width="1.5"/>

  <!-- 分支节点 -->
  <circle cx="80" cy="110" r="6" fill="#409EFF"/>
  <circle cx="80" cy="130" r="5" fill="#409EFF" opacity="0.7"/>
  <circle cx="80" cy="160" r="5" fill="#409EFF" opacity="0.7"/>
  <circle cx="80" cy="190" r="6" fill="#409EFF"/>

  <!-- 版本标签 -->
  <rect x="145" y="122" width="70" height="16" rx="8" fill="#409EFF" opacity="0.15"/>
  <text x="180" y="134" text-anchor="middle" font-family="Arial, sans-serif" font-size="11" fill="#1a1a2e">v1.0.0</text>
  <rect x="145" y="152" width="70" height="16" rx="8" fill="#409EFF" opacity="0.15"/>
  <text x="180" y="164" text-anchor="middle" font-family="Arial, sans-serif" font-size="11" fill="#1a1a2e">v1.1.0</text>
  <rect x="145" y="182" width="70" height="16" rx="8" fill="#409EFF" opacity="0.15"/>
  <text x="180" y="194" text-anchor="middle" font-family="Arial, sans-serif" font-size="11" fill="#1a1a2e">v2.0.0</text>

  <!-- 箭头 -->
  <polygon points="140,126 148,130 140,134" fill="#409EFF" opacity="0.5"/>
  <polygon points="140,156 148,160 140,164" fill="#409EFF" opacity="0.5"/>
  <polygon points="140,186 148,190 140,194" fill="#409EFF" opacity="0.5"/>

  <!-- CHANGELOG文档 -->
  <rect x="230" y="105" width="145" height="100" rx="6" fill="#F5F9FF" stroke="#409EFF" stroke-width="1" stroke-dasharray="3,2"/>
  <text x="302" y="122" text-anchor="middle" font-family="Arial, sans-serif" font-size="11" font-weight="bold" fill="#409EFF">CHANGELOG</text>
  <line x1="240" y1="130" x2="365" y2="130" stroke="#409EFF" stroke-width="0.5" opacity="0.4"/>
  <text x="245" y="146" font-family="Arial, sans-serif" font-size="9" fill="#1a1a2e">• 新增意图分类</text>
  <text x="245" y="160" font-family="Arial, sans-serif" font-size="9" fill="#1a1a2e">• 优化few-shot模板</text>
  <text x="245" y="174" font-family="Arial, sans-serif" font-size="9" fill="#1a1a2e">• 修复格式错误</text>
  <text x="245" y="188" font-family="Arial, sans-serif" font-size="9" fill="#1a1a2e">• 升级至v2.0.0</text>

  <!-- 标注1 -->
  <rect x="50" y="220" width="80" height="20" rx="10" fill="#409EFF" opacity="0.12"/>
  <text x="90" y="234" text-anchor="middle" font-family="Arial, sans-serif" font-size="11" fill="#409EFF" font-weight="bold">版本迭代</text>

  <!-- ========== 右侧：A/B测试 ========== -->
  <rect x="410" y="50" width="360" height="210" rx="10" fill="white" stroke="#409EFF" stroke-width="1.5" opacity="0.9"/>
  <rect x="410" y="50" width="360" height="32" rx="10" fill="url(#rightGrad)" opacity="0.85"/>
  <rect x="410" y="72" width="360" height="10" rx="0" fill="url(#rightGrad)" opacity="0.85"/>
  <text x="590" y="72" text-anchor="middle" font-family="Arial, sans-serif" font-size="14" font-weight="bold" fill="white">A/B测试 / A/B Testing</text>

  <!-- 流量分割漏斗 -->
  <polygon points="480,90 560,90 540,130 500,130" fill="#409EFF" opacity="0.2" stroke="#409EFF" stroke-width="1.5"/>
  <text x="520" y="105" text-anchor="middle" font-family="Arial, sans-serif" font-size="10" fill="#1a1a2e" font-weight="bold">流量</text>
  <text x="520" y="118" text-anchor="middle" font-family="Arial, sans-serif" font-size="9" fill="#409EFF">分割器</text>

  <!-- 版本A 90% -->
  <rect x="430" y="135" width="80" height="28" rx="6" fill="#409EFF" opacity="0.2" stroke="#409EFF" stroke-width="1.2"/>
  <text x="470" y="153" text-anchor="middle" font-family="Arial, sans-serif" font-size="12" font-weight="bold" fill="#1a1a2e">版本A</text>
  <text x="470" y="168" text-anchor="middle" font-family="Arial, sans-serif" font-size="10" fill="#409EFF">90%</text>

  <!-- 版本B 10% -->
  <rect x="530" y="135" width="80" height="28" rx="6" fill="#409EFF" opacity="0.12" stroke="#409EFF" stroke-width="1" stroke-dasharray="3,2"/>
  <text x="570" y="153" text-anchor="middle" font-family="Arial, sans-serif" font-size="12" font-weight="bold" fill="#1a1a2e">版本B</text>
  <text x="570" y="168" text-anchor="middle" font-family="Arial, sans-serif" font-size="10" fill="#409EFF">10%</text>

  <!-- 箭头指向仪表板 -->
  <line x1="470" y1="163" x2="470" y2="185" stroke="#409EFF" stroke-width="1.2"/>
  <line x1="570" y1="163" x2="570" y2="185" stroke="#409EFF" stroke-width="1" stroke-dasharray="3,2"/>
  <polygon points="465,185 470,192 475,185" fill="#409EFF"/>
  <polygon points="565,185 570,192 575,185" fill="#409EFF" opacity="0.6"/>

  <!-- 指标仪表板 -->
  <rect x="430" y="192" width="180" height="55" rx="6" fill="#F5F9FF" stroke="#409EFF" stroke-width="1"/>
  <text x="520" y="207" text-anchor="middle" font-family="Arial, sans-serif" font-size="10" font-weight="bold" fill="#409EFF">指标仪表板</text>

  <!-- 准确率 -->
  <rect x="438" y="213" width="52" height="14" rx="3" fill="#409EFF" opacity="0.1"/>
  <text x="444" y="224" font-family="Arial, sans-serif" font-size="8" fill="#1a1a2e">准确率</text>
  <text x="480" y="224" font-family="Arial, sans-serif" font-size="8" fill="#409EFF" font-weight="bold">96%</text>

  <!-- Schema合规 -->
  <rect x="495" y="213" width="52" height="14" rx="3" fill="#409EFF" opacity="0.1"/>
  <text x="501" y="224" font-family="Arial, sans-serif" font-size="8" fill="#1a1a2e">Schema</text>
  <text x="537" y="224" font-family="Arial, sans-serif" font-size="8" fill="#409EFF" font-weight="bold">99%</text>

  <!-- 延迟 -->
  <rect x="552" y="213" width="50" height="14" rx="3" fill="#409EFF" opacity="0.1"/>
  <text x="558" y="224" font-family="Arial, sans-serif" font-size="8" fill="#1a1a2e">延迟</text>
  <text x="592" y="224" font-family="Arial, sans-serif" font-size="8" fill="#409EFF" font-weight="bold">120ms</text>

  <!-- 统计显著性徽章 -->
  <rect x="625" y="135" width="70" height="30" rx="15" fill="url(#badgeGrad)" opacity="0.9"/>
  <text x="660" y="148" text-anchor="middle" font-family="Arial, sans-serif" font-size="9" font-weight="bold" fill="#1a1a2e">★ 优胜</text>
  <text x="660" y="160" text-anchor="middle" font-family="Arial, sans-serif" font-size="8" fill="#1a1a2e">版本A</text>

  <!-- 标注2 -->
  <rect x="430" y="252" width="80" height="20" rx="10" fill="#409EFF" opacity="0.12"/>
  <text x="470" y="266" text-anchor="middle" font-family="Arial, sans-serif" font-size="11" fill="#409EFF" font-weight="bold">流量实验</text>

  <!-- ========== 底部：逐步上线阶梯 ========== -->
  <rect x="30" y="280" width="740" height="200" rx="10" fill="white" stroke="#409EFF" stroke-width="1.5" opacity="0.9"/>
  <rect x="30" y="280" width="740" height="30" rx="10" fill="#409EFF" opacity="0.2"/>
  <rect x="30" y="300" width="740" height="10" rx="0" fill="#409EFF" opacity="0.2"/>
  <text x="400" y="300" text-anchor="middle" font-family="Arial, sans-serif" font-size="14" font-weight="bold" fill="#1a1a2e">逐步上线 / Gradual Rollout</text>

  <!-- 阶梯步骤 -->
  <!-- 步骤1: 内部测试 -->
  <rect x="55" y="340" width="120" height="50" rx="8" fill="#F5F9FF" stroke="#409EFF" stroke-width="1.2"/>
  <rect x="55" y="340" width="120" height="20" rx="8" fill="#409EFF" opacity="0.3"/>
  <rect x="55" y="352" width="120" height="8" rx="0" fill="#409EFF" opacity="0.3"/>
  <text x="115" y="356" text-anchor="middle" font-family="Arial, sans-serif" font-size="11" font-weight="bold" fill="#1a1a2e">内部测试</text>
  <text x="115" y="378" text-anchor="middle" font-family="Arial, sans-serif" font-size="10" fill="#409EFF">0% 流量</text>
  <circle cx="70" cy="375" r="4" fill="#67C23A"/>

  <!-- 箭头1 -->
  <text x="182" y="368" font-family="Arial, sans-serif" font-size="14" fill="#409EFF" opacity="0.5">→</text>

  <!-- 步骤2: 金丝雀1% -->
  <rect x="195" y="340" width="120" height="50" rx="8" fill="#F5F9FF" stroke="#409EFF" stroke-width="1.2"/>
  <rect x="195" y="340" width="120" height="20" rx="8" fill="#409EFF" opacity="0.3"/>
  <rect x="195" y="352" width="120" height="8" rx="0" fill="#409EFF" opacity="0.3"/>
  <text x="255" y="356" text-anchor="middle" font-family="Arial, sans-serif" font-size="11" font-weight="bold" fill="#1a1a2e">金丝雀1%</text>
  <text x="255" y="378" text-anchor="middle" font-family="Arial, sans-serif" font-size="10" fill="#409EFF">1% 流量</text>
  <circle cx="210" cy="375" r="4" fill="#E6A23C"/>

  <!-- 箭头2 -->
  <text x="322" y="368" font-family="Arial, sans-serif" font-size="14" fill="#409EFF" opacity="0.5">→</text>

  <!-- 步骤3: 小范围10% -->
  <rect x="335" y="340" width="120" height="50" rx="8" fill="#F5F9FF" stroke="#409EFF" stroke-width="1.2"/>
  <rect x="335" y="340" width="120" height="20" rx="8" fill="#409EFF" opacity="0.3"/>
  <rect x="335" y="352" width="120" height="8" rx="0" fill="#409EFF" opacity="0.3"/>
  <text x="395" y="356" text-anchor="middle" font-family="Arial, sans-serif" font-size="11" font-weight="bold" fill="#1a1a2e">小范围10%</text>
  <text x="395" y="378" text-anchor="middle" font-family="Arial, sans-serif" font-size="10" fill="#409EFF">10% 流量</text>
  <circle cx="350" cy="375" r="4" fill="#E6A23C"/>

  <!-- 箭头3 -->
  <text x="462" y="368" font-family="Arial, sans-serif" font-size="14" fill="#409EFF" opacity="0.5">→</text>

  <!-- 步骤4: 半量50% -->
  <rect x="475" y="340" width="120" height="50" rx="8" fill="#F5F9FF" stroke="#409EFF" stroke-width="1.2"/>
  <rect x="475" y="340" width="120" height="20" rx="8" fill="#409EFF" opacity="0.3"/>
  <rect x="475" y="352" width="120" height="8" rx="0" fill="#409EFF" opacity="0.3"/>
  <text x="535" y="356" text-anchor="middle" font-family="Arial, sans-serif" font-size="11" font-weight="bold" fill="#1a1a2e">半量50%</text>
  <text x="535" y="378" text-anchor="middle" font-family="Arial, sans-serif" font-size="10" fill="#409EFF">50% 流量</text>
  <circle cx="490" cy="375" r="4" fill="#409EFF"/>

  <!-- 箭头4 -->
  <text x="602" y="368" font-family="Arial, sans-serif" font-size="14" fill="#409EFF" opacity="0.5">→</text>

  <!-- 步骤5: 全量100% -->
  <rect x="615" y="340" width="130" height="50" rx="8" fill="#F5F9FF" stroke="#409EFF" stroke-width="1.5"/>
  <rect x="615" y="340" width="130" height="20" rx="8" fill="#409EFF" opacity="0.5"/>
  <rect x="615" y="352" width="130" height="8" rx="0" fill="#409EFF" opacity="0.5"/>
  <text x="680" y="356" text-anchor="middle" font-family="Arial, sans-serif" font-size="11" font-weight="bold" fill="#1a1a2e">全量100%</text>
  <text x="680" y="378" text-anchor="middle" font-family="Arial, sans-serif" font-size="10" fill="#409EFF">100% 流量</text>
  <circle cx="630" cy="375" r="4" fill="#67C23A"/>

  <!-- 状态指示器标签 -->
  <text x="55" y="412" font-family="Arial, sans-serif" font-size="9" fill="#67C23A">● 通过</text>
  <text x="195" y="412" font-family="Arial, sans-serif" font-size="9" fill="#E6A23C">● 监控中</text>
  <text x="335" y="412" font-family="Arial, sans-serif" font-size="9" fill="#E6A23C">● 监控中</text>
  <text x="475" y="412" font-family="Arial, sans-serif" font-size="9" fill="#409EFF">● 审核中</text>
  <text x="615" y="412" font-family="Arial, sans-serif" font-size="9" fill="#67C23A">● 已上线</text>

  <!-- 阶梯连接线（底部） -->
  <line x1="115" y1="395" x2="255" y2="395" stroke="#409EFF" stroke-width="1" opacity="0.3" stroke-dasharray="4,2"/>
  <line x1="255" y1="395" x2="395" y2="395" stroke="#409EFF" stroke-width="1" opacity="0.3" stroke-dasharray="4,2"/>
  <line x1="395" y1="395" x2="535" y2="395" stroke="#409EFF" stroke-width="1" opacity="0.3" stroke-dasharray="4,2"/>
  <line x1="535" y1="395" x2="680" y2="395" stroke="#409EFF" stroke-width="1" opacity="0.3" stroke-dasharray="4,2"/>

  <!-- 标注3-6 -->
  <rect x="55" y="430" width="70" height="18" rx="9" fill="#409EFF" opacity="0.1"/>
  <text x="90" y="443" text-anchor="middle" font-family="Arial, sans-serif" font-size="10" fill="#409EFF">安全验证</text>

  <rect x="195" y="430" width="70" height="18" rx="9" fill="#409EFF" opacity="0.1"/>
  <text x="230" y="443" text-anchor="middle" font-family="Arial, sans-serif" font-size="10" fill="#409EFF">灰度发布</text>

  <rect x="475" y="430" width="70" height="18" rx="9" fill="#409EFF" opacity="0.1"/>
  <text x="510" y="443" text-anchor="middle" font-family="Arial, sans-serif" font-size="10" fill="#409EFF">容量验证</text>

  <rect x="615" y="430" width="70" height="18" rx="9" fill="#409EFF" opacity="0.1"/>
  <text x="650" y="443" text-anchor="middle" font-family="Arial, sans-serif" font-size="10" fill="#409EFF">正式上线</text>

  <!-- 底部装饰线 -->
  <line x1="30" y1="465" x2="770" y2="465" stroke="#409EFF" stroke-width="0.5" opacity="0.2"/>
  <text x="400" y="482" text-anchor="middle" font-family="Arial, sans-serif" font-size="9" fill="#409EFF" opacity="0.5">版本管理与A/B测试 — 提示工程最佳实践</text>
</svg>