<svg xmlns="http://www.w3.org/2000/svg" viewBox="0 0 800 500" width="800" height="500">
  <defs>
    <linearGradient id="bgGrad" x1="0" y1="0" x2="0" y2="1">
      <stop offset="0%" stop-color="#E8F4FF"/>
      <stop offset="100%" stop-color="#F0F8FF"/>
    </linearGradient>
    <linearGradient id="brainGrad" x1="0" y1="0" x2="1" y2="1">
      <stop offset="0%" stop-color="#409EFF"/>
      <stop offset="100%" stop-color="#6BB5FF"/>
    </linearGradient>
  </defs>

  <!-- 背景 -->
  <rect width="800" height="500" fill="url(#bgGrad)" rx="8"/>

  <!-- 标题 -->
  <text x="400" y="38" text-anchor="middle" font-family="Arial, sans-serif" font-size="20" font-weight="bold" fill="#1a1a2e">工具 → 知识 → 工作者</text>

  <!-- 三个面板区域 -->
  <!-- 左侧面板：传统程序 -->
  <rect x="40" y="65" width="220" height="340" rx="12" fill="white" stroke="#409EFF" stroke-width="1.5" opacity="0.9"/>
  <rect x="40" y="65" width="220" height="40" rx="12" fill="#409EFF" opacity="0.15"/>
  <text x="150" y="91" text-anchor="middle" font-family="Arial, sans-serif" font-size="15" font-weight="bold" fill="#1a1a2e">传统程序</text>

  <!-- 传送带机器 -->
  <rect x="70" y="130" width="160" height="30" rx="6" fill="#409EFF" opacity="0.25" stroke="#409EFF" stroke-width="1.2"/>
  <rect x="70" y="130" width="160" height="8" rx="4" fill="#409EFF" opacity="0.4"/>
  <!-- 齿轮 -->
  <circle cx="90" cy="155" r="12" fill="none" stroke="#409EFF" stroke-width="1.8"/>
  <circle cx="90" cy="155" r="4" fill="#409EFF"/>
  <line x1="90" y1="143" x2="90" y2="167" stroke="#409EFF" stroke-width="1.2"/>
  <line x1="78" y1="155" x2="102" y2="155" stroke="#409EFF" stroke-width="1.2"/>

  <circle cx="210" cy="155" r="12" fill="none" stroke="#409EFF" stroke-width="1.8"/>
  <circle cx="210" cy="155" r="4" fill="#409EFF"/>
  <line x1="210" y1="143" x2="210" y2="167" stroke="#409EFF" stroke-width="1.2"/>
  <line x1="198" y1="155" x2="222" y2="155" stroke="#409EFF" stroke-width="1.2"/>

  <!-- 固定路径箭头 -->
  <line x1="90" y1="185" x2="210" y2="185" stroke="#409EFF" stroke-width="1.5" stroke-dasharray="6,3"/>
  <polygon points="210,180 218,185 210,190" fill="#409EFF"/>
  <line x1="90" y1="200" x2="210" y2="200" stroke="#409EFF" stroke-width="1.5" stroke-dasharray="6,3"/>
  <polygon points="210,195 218,200 210,205" fill="#409EFF"/>

  <!-- 输入输出方块 -->
  <rect x="100" y="220" width="40" height="25" rx="4" fill="#409EFF" opacity="0.3" stroke="#409EFF" stroke-width="1"/>
  <text x="120" y="237" text-anchor="middle" font-family="Arial, sans-serif" font-size="11" fill="#1a1a2e">输入</text>
  <rect x="180" y="220" width="40" height="25" rx="4" fill="#409EFF" opacity="0.3" stroke="#409EFF" stroke-width="1"/>
  <text x="200" y="237" text-anchor="middle" font-family="Arial, sans-serif" font-size="11" fill="#1a1a2e">输出</text>
  <line x1="140" y1="232" x2="180" y2="232" stroke="#409EFF" stroke-width="1.2"/>

  <!-- 标注 -->
  <rect x="75" y="270" width="170" height="28" rx="14" fill="#409EFF" opacity="0.12"/>
  <text x="160" y="289" text-anchor="middle" font-family="Arial, sans-serif" font-size="13" fill="#409EFF">固定流程</text>

  <rect x="75" y="310" width="170" height="28" rx="14" fill="#409EFF" opacity="0.12"/>
  <text x="160" y="329" text-anchor="middle" font-family="Arial, sans-serif" font-size="13" fill="#409EFF">无自主学习</text>

  <rect x="75" y="350" width="170" height="28" rx="14" fill="#409EFF" opacity="0.12"/>
  <text x="160" y="369" text-anchor="middle" font-family="Arial, sans-serif" font-size="13" fill="#409EFF">规则驱动</text>

  <!-- 中间面板：LLM -->
  <rect x="290" y="65" width="220" height="340" rx="12" fill="white" stroke="#409EFF" stroke-width="1.5" opacity="0.9"/>
  <rect x="290" y="65" width="220" height="40" rx="12" fill="#409EFF" opacity="0.15"/>
  <text x="400" y="91" text-anchor="middle" font-family="Arial, sans-serif" font-size="15" font-weight="bold" fill="#1a1a2e">大语言模型</text>

  <!-- 大脑形状 -->
  <ellipse cx="400" cy="165" rx="70" ry="55" fill="url(#brainGrad)" opacity="0.2"/>
  <ellipse cx="400" cy="165" rx="70" ry="55" fill="none" stroke="#409EFF" stroke-width="1.5"/>
  <!-- 大脑沟回 -->
  <path d="M350,150 Q370,135 390,150 Q410,165 430,150 Q450,135 460,155" fill="none" stroke="#409EFF" stroke-width="1.2" opacity="0.6"/>
  <path d="M345,170 Q370,155 395,170 Q420,185 445,170 Q455,160 465,175" fill="none" stroke="#409EFF" stroke-width="1.2" opacity="0.6"/>
  <path d="M355,190 Q380,175 400,190 Q420,205 445,190" fill="none" stroke="#409EFF" stroke-width="1.2" opacity="0.6"/>

  <!-- 书架 -->
  <rect x="340" y="230" width="120" height="8" rx="2" fill="#409EFF" opacity="0.3"/>
  <rect x="345" y="215" width="15" height="18" rx="1" fill="#409EFF" opacity="0.25"/>
  <rect x="365" y="212" width="12" height="21" rx="1" fill="#409EFF" opacity="0.35"/>
  <rect x="382" y="216" width="14" height="17" rx="1" fill="#409EFF" opacity="0.25"/>
  <rect x="401" y="213" width="11" height="20" rx="1" fill="#409EFF" opacity="0.35"/>
  <rect x="417" y="215" width="13" height="18" rx="1" fill="#409EFF" opacity="0.25"/>
  <rect x="435" y="214" width="12" height="19" rx="1" fill="#409EFF" opacity="0.35"/>

  <rect x="340" y="250" width="120" height="6" rx="2" fill="#409EFF" opacity="0.25"/>
  <rect x="348" y="238" width="12" height="14" rx="1" fill="#409EFF" opacity="0.2"/>
  <rect x="365" y="236" width="10" height="16" rx="1" fill="#409EFF" opacity="0.3"/>
  <rect x="385" y="239" width="14" height="13" rx="1" fill="#409EFF" opacity="0.2"/>
  <rect x="408" y="237" width="11" height="15" rx="1" fill="#409EFF" opacity="0.3"/>

  <!-- 知识辐射线 -->
  <line x1="400" y1="110" x2="380" y2="95" stroke="#409EFF" stroke-width="1" opacity="0.4"/>
  <line x1="400" y1="110" x2="420" y2="95" stroke="#409EFF" stroke-width="1" opacity="0.4"/>
  <line x1="400" y1="110" x2="400" y2="92" stroke="#409EFF" stroke-width="1" opacity="0.4"/>
  <circle cx="380" cy="93" r="2" fill="#409EFF" opacity="0.5"/>
  <circle cx="420" cy="93" r="2" fill="#409EFF" opacity="0.5"/>
  <circle cx="400" cy="90" r="2" fill="#409EFF" opacity="0.5"/>

  <!-- 标注 -->
  <rect x="325" y="275" width="170" height="28" rx="14" fill="#409EFF" opacity="0.12"/>
  <text x="410" y="294" text-anchor="middle" font-family="Arial, sans-serif" font-size="13" fill="#409EFF">知识丰富</text>

  <rect x="325" y="315" width="170" height="28" rx="14" fill="#409EFF" opacity="0.12"/>
  <text x="410" y="334" text-anchor="middle" font-family="Arial, sans-serif" font-size="13" fill="#409EFF">无法行动</text>

  <rect x="325" y="355" width="170" height="28" rx="14" fill="#409EFF" opacity="0.12"/>
  <text x="410" y="374" text-anchor="middle" font-family="Arial, sans-serif" font-size="13" fill="#409EFF">仅文本输出</text>

  <!-- 右侧面板：AI Agent -->
  <rect x="540" y="65" width="220" height="340" rx="12" fill="white" stroke="#409EFF" stroke-width="1.5" opacity="0.9"/>
  <rect x="540" y="65" width="220" height="40" rx="12" fill="#409EFF" opacity="0.15"/>
  <text x="650" y="91" text-anchor="middle" font-family="Arial, sans-serif" font-size="15" font-weight="bold" fill="#1a1a2e">AI 智能体</text>

  <!-- 机器人厨师 -->
  <!-- 身体 -->
  <rect x="620" y="140" width="60" height="50" rx="10" fill="#409EFF" opacity="0.2" stroke="#409EFF" stroke-width="1.5"/>
  <!-- 头 -->
  <circle cx="650" cy="125" r="22" fill="white" stroke="#409EFF" stroke-width="1.5"/>
  <!-- 眼睛 -->
  <circle cx="642" cy="120" r="4" fill="#409EFF"/>
  <circle cx="658" cy="120" r="4" fill="#409EFF"/>
  <!-- 微笑 -->
  <path d="M642,132 Q650,140 658,132" fill="none" stroke="#409EFF" stroke-width="1.5" stroke-linecap="round"/>
  <!-- 天线 -->
  <line x1="650" y1="103" x2="650" y2="90" stroke="#409EFF" stroke-width="1.5"/>
  <circle cx="650" cy="88" r="4" fill="#409EFF" opacity="0.6"/>

  <!-- 围裙 -->
  <path d="M625,165 L635,190 L665,190 L675,165" fill="white" stroke="#409EFF" stroke-width="1" opacity="0.7"/>

  <!-- 左手 - 拿锅铲 -->
  <line x1="620" y1="155" x2="590" y2="140" stroke="#409EFF" stroke-width="2.5" stroke-linecap="round"/>
  <rect x="575" y="125" width="25" height="8" rx="3" fill="#409EFF" opacity="0.5" transform="rotate(-20,587,129)"/>

  <!-- 右手 - 拿勺子 -->
  <line x1="680" y1="155" x2="710" y2="145" stroke="#409EFF" stroke-width="2.5" stroke-linecap="round"/>
  <circle cx="715" cy="142" r="6" fill="none" stroke="#409EFF" stroke-width="1.5"/>

  <!-- 锅 -->
  <ellipse cx="590" cy="175" rx="30" ry="10" fill="none" stroke="#409EFF" stroke-width="1.5"/>
  <path d="M560,175 L560,195 Q590,205 620,195 L620,175" fill="none" stroke="#409EFF" stroke-width="1.5"/>
  <!-- 火焰 -->
  <path d="M575,198 Q580,205 585,198 Q590,208 595,198 Q600,205 605,198" fill="#409EFF" opacity="0.4" stroke="#409EFF" stroke-width="1"/>

  <!-- 食材 -->
  <circle cx="690" cy="175" r="6" fill="#409EFF" opacity="0.3" stroke="#409EFF" stroke-width="1"/>
  <circle cx="705" cy="180" r="5" fill="#409EFF" opacity="0.25" stroke="#409EFF" stroke-width="1"/>
  <rect x="685" y="190" width="20" height="8" rx="2" fill="#409EFF" opacity="0.2" stroke="#409EFF" stroke-width="1"/>

  <!-- 食谱 -->
  <rect x="555" y="210" width="35" height="45" rx="3" fill="white" stroke="#409EFF" stroke-width="1.2"/>
  <line x1="560" y1="220" x2="585" y2="220" stroke="#409EFF" stroke-width="0.8" opacity="0.5"/>
  <line x1="560" y1="227" x2="582" y2="227" stroke="#409EFF" stroke-width="0.8" opacity="0.5"/>
  <line x1="560" y1="234" x2="585" y2="234" stroke="#409EFF" stroke-width="0.8" opacity="0.5"/>
  <line x1="560" y1="241" x2="578" y2="241" stroke="#409EFF" stroke-width="0.8" opacity="0.5"/>
  <line x1="560" y1="248" x2="583" y2="248" stroke="#409EFF" stroke-width="0.8" opacity="0.5"/>

  <!-- 标注 -->
  <rect x="565" y="270" width="170" height="28" rx="14" fill="#409EFF" opacity="0.12"/>
  <text x="650" y="289" text-anchor="middle" font-family="Arial, sans-serif" font-size="13" fill="#409EFF">自主行动</text>

  <rect x="565" y="310" width="170" height="28" rx="14" fill="#409EFF" opacity="0.12"/>
  <text x="650" y="329" text-anchor="middle" font-family="Arial, sans-serif" font-size="13" fill="#409EFF">使用工具</text>

  <rect x="565" y="350" width="170" height="28" rx="14" fill="#409EFF" opacity="0.12"/>
  <text x="650" y="369" text-anchor="middle" font-family="Arial, sans-serif" font-size="13" fill="#409EFF">目标驱动</text>

  <!-- 底部桥接箭头 -->
  <line x1="260" y1="430" x2="290" y2="430" stroke="#409EFF" stroke-width="2" opacity="0.6"/>
  <polygon points="290,425 300,430 290,435" fill="#409EFF" opacity="0.6"/>

  <line x1="510" y1="430" x2="540" y2="430" stroke="#409EFF" stroke-width="2" opacity="0.6"/>
  <polygon points="540,425 550,430 540,435" fill="#409EFF" opacity="0.6"/>

  <!-- 底部标签 -->
  <text x="150" y="445" text-anchor="middle" font-family="Arial, sans-serif" font-size="14" font-weight="bold" fill="#1a1a2e">工具</text>
  <text x="400" y="445" text-anchor="middle" font-family="Arial, sans-serif" font-size="14" font-weight="bold" fill="#1a1a2e">知识</text>
  <text x="650" y="445" text-anchor="middle" font-family="Arial, sans-serif" font-size="14" font-weight="bold" fill="#1a1a2e">工作者</text>

  <!-- 底部箭头 -->
  <line x1="150" y1="455" x2="400" y2="455" stroke="#409EFF" stroke-width="1.5" opacity="0.4" stroke-dasharray="4,4"/>
  <line x1="400" y1="455" x2="650" y2="455" stroke="#409EFF" stroke-width="1.5" opacity="0.4" stroke-dasharray="4,4"/>
  <text x="275" y="470" text-anchor="middle" font-family="Arial, sans-serif" font-size="12" fill="#409EFF" opacity="0.6">进化</text>
  <text x="525" y="470" text-anchor="middle" font-family="Arial, sans-serif" font-size="12" fill="#409EFF" opacity="0.6">进化</text>

</svg>