<svg xmlns="http://www.w3.org/2000/svg" viewBox="0 0 800 500" width="800" height="500">
  <defs>
    <linearGradient id="bgGrad" x1="0" y1="0" x2="0" y2="1">
      <stop offset="0%" stop-color="#E8F4FD"/>
      <stop offset="100%" stop-color="#F0F8FF"/>
    </linearGradient>
    <linearGradient id="blueGrad" x1="0" y1="0" x2="0" y2="1">
      <stop offset="0%" stop-color="#409EFF"/>
      <stop offset="100%" stop-color="#2B7BE3"/>
    </linearGradient>
    <linearGradient id="lightBlueGrad" x1="0" y1="0" x2="0" y2="1">
      <stop offset="0%" stop-color="#A0CFFF"/>
      <stop offset="100%" stop-color="#7BB8F0"/>
    </linearGradient>
  </defs>

  <!-- 背景 -->
  <rect width="800" height="500" fill="url(#bgGrad)"/>

  <!-- 顶部标题 -->
  <text x="400" y="38" text-anchor="middle" font-family="Arial, sans-serif" font-size="18" font-weight="bold" fill="#1a1a2e">AI 代理：从工具到知识再到行动者</text>

  <!-- 分隔线 -->
  <line x1="60" y1="52" x2="740" y2="52" stroke="#409EFF" stroke-width="1.5" opacity="0.4"/>

  <!-- ============ 左侧面板：传统程序 ============ -->
  <g transform="translate(40, 70)">
    <!-- 面板背景 -->
    <rect x="0" y="0" width="220" height="280" rx="12" fill="white" stroke="#409EFF" stroke-width="1.5" opacity="0.9"/>
    <rect x="0" y="0" width="220" height="280" rx="12" fill="#409EFF" opacity="0.04"/>

    <!-- 面板标题 -->
    <rect x="0" y="0" width="220" height="36" rx="12" fill="#409EFF" opacity="0.12"/>
    <text x="110" y="24" text-anchor="middle" font-family="Arial, sans-serif" font-size="14" font-weight="bold" fill="#1a1a2e">传统程序</text>

    <!-- 传送带主体 -->
    <rect x="35" y="65" width="150" height="30" rx="6" fill="#409EFF" opacity="0.15" stroke="#409EFF" stroke-width="1.2"/>
    <rect x="35" y="65" width="150" height="30" rx="6" fill="url(#blueGrad)" opacity="0.08"/>

    <!-- 传送带上的齿轮 -->
    <circle cx="55" cy="80" r="10" fill="none" stroke="#409EFF" stroke-width="1.5"/>
    <circle cx="55" cy="80" r="4" fill="#409EFF" opacity="0.5"/>
    <line x1="55" y1="70" x2="55" y2="90" stroke="#409EFF" stroke-width="1" opacity="0.5"/>
    <line x1="45" y1="80" x2="65" y2="80" stroke="#409EFF" stroke-width="1" opacity="0.5"/>

    <circle cx="110" cy="80" r="10" fill="none" stroke="#409EFF" stroke-width="1.5"/>
    <circle cx="110" cy="80" r="4" fill="#409EFF" opacity="0.5"/>
    <line x1="110" y1="70" x2="110" y2="90" stroke="#409EFF" stroke-width="1" opacity="0.5"/>
    <line x1="100" y1="80" x2="120" y2="80" stroke="#409EFF" stroke-width="1" opacity="0.5"/>

    <circle cx="165" cy="80" r="10" fill="none" stroke="#409EFF" stroke-width="1.5"/>
    <circle cx="165" cy="80" r="4" fill="#409EFF" opacity="0.5"/>
    <line x1="165" y1="70" x2="165" y2="90" stroke="#409EFF" stroke-width="1" opacity="0.5"/>
    <line x1="155" y1="80" x2="175" y2="80" stroke="#409EFF" stroke-width="1" opacity="0.5"/>

    <!-- 传送带上的方块 -->
    <rect x="40" y="100" width="16" height="12" rx="2" fill="#409EFF" opacity="0.6"/>
    <rect x="70" y="100" width="16" height="12" rx="2" fill="#409EFF" opacity="0.4"/>
    <rect x="100" y="100" width="16" height="12" rx="2" fill="#409EFF" opacity="0.6"/>
    <rect x="130" y="100" width="16" height="12" rx="2" fill="#409EFF" opacity="0.4"/>
    <rect x="160" y="100" width="16" height="12" rx="2" fill="#409EFF" opacity="0.6"/>

    <!-- 固定路径箭头 -->
    <path d="M 50 130 L 170 130" stroke="#409EFF" stroke-width="1.5" stroke-dasharray="6,4" opacity="0.5"/>
    <polygon points="170,126 178,130 170,134" fill="#409EFF" opacity="0.5"/>

    <!-- 输入输出端口 -->
    <rect x="30" y="150" width="40" height="20" rx="4" fill="#409EFF" opacity="0.1" stroke="#409EFF" stroke-width="1"/>
    <text x="50" y="163" text-anchor="middle" font-family="Arial, sans-serif" font-size="10" fill="#409EFF">输入</text>

    <rect x="150" y="150" width="40" height="20" rx="4" fill="#409EFF" opacity="0.1" stroke="#409EFF" stroke-width="1"/>
    <text x="170" y="163" text-anchor="middle" font-family="Arial, sans-serif" font-size="10" fill="#409EFF">输出</text>

    <!-- 连接线 -->
    <line x1="70" y1="160" x2="150" y2="160" stroke="#409EFF" stroke-width="1" opacity="0.3"/>

    <!-- 底部标签 -->
    <rect x="35" y="195" width="150" height="28" rx="14" fill="#409EFF" opacity="0.08"/>
    <text x="110" y="213" text-anchor="middle" font-family="Arial, sans-serif" font-size="13" fill="#1a1a2e">固定流程 · 无自主</text>

    <!-- 标注 -->
    <rect x="10" y="245" width="200" height="24" rx="12" fill="#409EFF" opacity="0.1"/>
    <text x="110" y="261" text-anchor="middle" font-family="Arial, sans-serif" font-size="12" fill="#409EFF">⚙️ 硬编码规则</text>
  </g>

  <!-- ============ 中间面板：LLM ============ -->
  <g transform="translate(290, 70)">
    <!-- 面板背景 -->
    <rect x="0" y="0" width="220" height="280" rx="12" fill="white" stroke="#409EFF" stroke-width="1.5" opacity="0.9"/>
    <rect x="0" y="0" width="220" height="280" rx="12" fill="#409EFF" opacity="0.04"/>

    <!-- 面板标题 -->
    <rect x="0" y="0" width="220" height="36" rx="12" fill="#409EFF" opacity="0.12"/>
    <text x="110" y="24" text-anchor="middle" font-family="Arial, sans-serif" font-size="14" font-weight="bold" fill="#1a1a2e">大型语言模型</text>

    <!-- 大脑形状的图书馆 -->
    <ellipse cx="110" cy="105" rx="70" ry="55" fill="#409EFF" opacity="0.06" stroke="#409EFF" stroke-width="1.2"/>
    <ellipse cx="110" cy="105" rx="60" ry="45" fill="#409EFF" opacity="0.04"/>

    <!-- 大脑褶皱线 -->
    <path d="M 70 95 Q 90 80 110 95 Q 130 110 150 95" stroke="#409EFF" stroke-width="0.8" fill="none" opacity="0.3"/>
    <path d="M 65 110 Q 85 95 110 110 Q 135 125 155 110" stroke="#409EFF" stroke-width="0.8" fill="none" opacity="0.3"/>
    <path d="M 75 125 Q 95 110 110 125 Q 125 140 145 125" stroke="#409EFF" stroke-width="0.8" fill="none" opacity="0.3"/>

    <!-- 书架上的书 -->
    <rect x="78" y="78" width="8" height="14" rx="1" fill="#409EFF" opacity="0.5"/>
    <rect x="88" y="75" width="8" height="17" rx="1" fill="#409EFF" opacity="0.35"/>
    <rect x="98" y="80" width="8" height="12" rx="1" fill="#409EFF" opacity="0.5"/>
    <rect x="108" y="76" width="8" height="16" rx="1" fill="#409EFF" opacity="0.35"/>
    <rect x="118" y="79" width="8" height="13" rx="1" fill="#409EFF" opacity="0.5"/>
    <rect x="128" y="74" width="8" height="18" rx="1" fill="#409EFF" opacity="0.35"/>
    <rect x="138" y="77" width="8" height="15" rx="1" fill="#409EFF" opacity="0.5"/>

    <rect x="78" y="100" width="8" height="14" rx="1" fill="#409EFF" opacity="0.35"/>
    <rect x="88" y="97" width="8" height="17" rx="1" fill="#409EFF" opacity="0.5"/>
    <rect x="98" y="102" width="8" height="12" rx="1" fill="#409EFF" opacity="0.35"/>
    <rect x="108" y="98" width="8" height="16" rx="1" fill="#409EFF" opacity="0.5"/>
    <rect x="118" y="101" width="8" height="13" rx="1" fill="#409EFF" opacity="0.35"/>
    <rect x="128" y="96" width="8" height="18" rx="1" fill="#409EFF" opacity="0.5"/>
    <rect x="138" y="99" width="8" height="15" rx="1" fill="#409EFF" opacity="0.35"/>

    <rect x="78" y="122" width="8" height="14" rx="1" fill="#409EFF" opacity="0.5"/>
    <rect x="88" y="119" width="8" height="17" rx="1" fill="#409EFF" opacity="0.35"/>
    <rect x="98" y="124" width="8" height="12" rx="1" fill="#409EFF" opacity="0.5"/>
    <rect x="108" y="120" width="8" height="16" rx="1" fill="#409EFF" opacity="0.35"/>
    <rect x="118" y="123" width="8" height="13" rx="1" fill="#409EFF" opacity="0.5"/>
    <rect x="128" y="118" width="8" height="18" rx="1" fill="#409EFF" opacity="0.35"/>
    <rect x="138" y="121" width="8" height="15" rx="1" fill="#409EFF" opacity="0.5"/>

    <!-- 知识光芒 -->
    <g opacity="0.15">
      <line x1="110" y1="50" x2="110" y2="35" stroke="#409EFF" stroke-width="1.5"/>
      <line x1="140" y1="55" x2="155" y2="42" stroke="#409EFF" stroke-width="1.5"/>
      <line x1="80" y1="55" x2="65" y2="42" stroke="#409EFF" stroke-width="1.5"/>
      <line x1="155" y1="80" x2="170" y2="75" stroke="#409EFF" stroke-width="1.5"/>
      <line x1="65" y1="80" x2="50" y2="75" stroke="#409EFF" stroke-width="1.5"/>
    </g>

    <!-- 无手标识 -->
    <text x="110" y="160" text-anchor="middle" font-family="Arial, sans-serif" font-size="22" fill="#409EFF" opacity="0.3">🚫</text>
    <text x="110" y="178" text-anchor="middle" font-family="Arial, sans-serif" font-size="11" fill="#409EFF" opacity="0.5">无行动能力</text>

    <!-- 底部标签 -->
    <rect x="35" y="195" width="150" height="28" rx="14" fill="#409EFF" opacity="0.08"/>
    <text x="110" y="213" text-anchor="middle" font-family="Arial, sans-serif" font-size="13" fill="#1a1a2e">海量知识 · 无行动</text>

    <!-- 标注 -->
    <rect x="10" y="245" width="200" height="24" rx="12" fill="#409EFF" opacity="0.1"/>
    <text x="110" y="261" text-anchor="middle" font-family="Arial, sans-serif" font-size="12" fill="#409EFF">📚 知识库</text>
  </g>

  <!-- ============ 右侧面板：AI 代理 ============ -->
  <g transform="translate(540, 70)">
    <!-- 面板背景 -->
    <rect x="0" y="0" width="220" height="280" rx="12" fill="white" stroke="#409EFF" stroke-width="1.5" opacity="0.9"/>
    <rect x="0" y="0" width="220" height="280" rx="12" fill="#409EFF" opacity="0.04"/>

    <!-- 面板标题 -->
    <rect x="0" y="0" width="220" height="36" rx="12" fill="#409EFF" opacity="0.12"/>
    <text x="110" y="24" text-anchor="middle" font-family="Arial, sans-serif" font-size="14" font-weight="bold" fill="#1a1a2e">AI 代理</text>

    <!-- 机器人厨师 -->
    <!-- 身体 -->
    <rect x="75" y="75" width="70" height="60" rx="10" fill="#409EFF" opacity="0.12" stroke="#409EFF" stroke-width="1.2"/>

    <!-- 头 -->
    <circle cx="110" cy="62" r="22" fill="#409EFF" opacity="0.08" stroke="#409EFF" stroke-width="1.2"/>
    <!-- 眼睛 -->
    <circle cx="103" cy="58" r="3" fill="#409EFF" opacity="0.6"/>
    <circle cx="117" cy="58" r="3" fill="#409EFF" opacity="0.6"/>
    <!-- 微笑 -->
    <path d="M 104 66 Q 110 71 116 66" stroke="#409EFF" stroke-width="1.2" fill="none" opacity="0.5"/>
    <!-- 天线 -->
    <line x1="110" y1="40" x2="110" y2="30" stroke="#409EFF" stroke-width="1.2" opacity="0.4"/>
    <circle cx="110" cy="28" r="3" fill="#409EFF" opacity="0.4"/>

    <!-- 厨师帽 -->
    <path d="M 95 48 Q 95 38 105 38 Q 110 34 115 38 Q 125 38 125 48" fill="#409EFF" opacity="0.15" stroke="#409EFF" stroke-width="1"/>
    <rect x="93" y="47" width="34" height="5" rx="2" fill="#409EFF" opacity="0.1" stroke="#409EFF" stroke-width="0.8"/>

    <!-- 围裙 -->
    <rect x="82" y="90" width="56" height="40" rx="4" fill="#409EFF" opacity="0.06" stroke="#409EFF" stroke-width="0.8" stroke-dasharray="3,2"/>

    <!-- 左手 - 拿勺子 -->
    <line x1="75" y1="90" x2="55" y2="80" stroke="#409EFF" stroke-width="2" opacity="0.5"/>
    <ellipse cx="50" cy="76" rx="8" ry="4" fill="none" stroke="#409EFF" stroke-width="1.2" opacity="0.5" transform="rotate(-20, 50, 76)"/>

    <!-- 右手 - 拿铲子 -->
    <line x1="145" y1="90" x2="165" y2="75" stroke="#409EFF" stroke-width="2" opacity="0.5"/>
    <rect x="162" y="65" width="10" height="14" rx="2" fill="#409EFF" opacity="0.2" stroke="#409EFF" stroke-width="1" transform="rotate(15, 167, 72)"/>

    <!-- 炉灶 -->
    <rect x="60" y="135" width="100" height="12" rx="4" fill="#409EFF" opacity="0.1" stroke="#409EFF" stroke-width="0.8"/>
    <!-- 火焰 -->
    <path d="M 85 135 Q 88 128 91 135" stroke="#409EFF" stroke-width="1.2" fill="none" opacity="0.5"/>
    <path d="M 105 135 Q 108 126 111 135" stroke="#409EFF" stroke-width="1.2" fill="none" opacity="0.6"/>
    <path d="M 125 135 Q 128 128 131 135" stroke="#409EFF" stroke-width="1.2" fill="none" opacity="0.5"/>

    <!-- 锅 -->
    <rect x="95" y="128" width="30" height="10" rx="3" fill="#409EFF" opacity="0.15" stroke="#409EFF" stroke-width="0.8"/>

    <!-- 食材 -->
    <circle cx="65" cy="150" r="5" fill="#409EFF" opacity="0.2"/>
    <circle cx="78" cy="152" r="4" fill="#409EFF" opacity="0.15"/>
    <circle cx="145" cy="150" r="5" fill="#409EFF" opacity="0.2"/>
    <circle cx="158" cy="152" r="4" fill="#409EFF" opacity="0.15"/>

    <!-- 菜谱 -->
    <rect x="155" y="95" width="18" height="24" rx="2" fill="white" stroke="#409EFF" stroke-width="0.8" opacity="0.6"/>
    <line x1="158" y1="100" x2="170" y2="100" stroke="#409EFF" stroke-width="0.5" opacity="0.4"/>
    <line x1="158" y1="104" x2="170" y2="104" stroke="#409EFF" stroke-width="0.5" opacity="0.4"/>
    <line x1="158" y1="108" x2="168" y2="108" stroke="#409EFF" stroke-width="0.5" opacity="0.4"/>

    <!-- 底部标签 -->
    <rect x="35" y="195" width="150" height="28" rx="14" fill="#409EFF" opacity="0.08"/>
    <text x="110" y="213" text-anchor="middle" font-family="Arial, sans-serif" font-size="13" fill="#1a1a2e">主动行动 · 使用工具</text>

    <!-- 标注 -->
    <rect x="10" y="245" width="200" height="24" rx="12" fill="#409EFF" opacity="0.1"/>
    <text x="110" y="261" text-anchor="middle" font-family="Arial, sans-serif" font-size="12" fill="#409EFF">🤖 自主代理</text>
  </g>

  <!-- ============ 底部桥梁隐喻 ============ -->
  <g transform="translate(0, 380)">
    <!-- 背景条 -->
    <rect x="60" y="0" width="680" height="60" rx="30" fill="white" stroke="#409EFF" stroke-width="1.2" opacity="0.85"/>
    <rect x="60" y="0" width="680" height="60" rx="30" fill="#409EFF" opacity="0.04"/>

    <!-- 三层对比 -->
    <!-- 工具 -->
    <rect x="100" y="10" width="140" height="40" rx="20" fill="#409EFF" opacity="0.1"/>
    <text x="170" y="35" text-anchor="middle" font-family="Arial, sans-serif" font-size="15" font-weight="bold" fill="#1a1a2e">🔧 工具</text>

    <!-- 箭头 -->
    <text x="265" y="35" text-anchor="middle" font-family="Arial, sans-serif" font-size="18" fill="#409EFF" opacity="0.6">→</text>

    <!-- 知识 -->
    <rect x="290" y="10" width="140" height="40" rx="20" fill="#409EFF" opacity="0.15"/>
    <text x="360" y="35" text-anchor="middle" font-family="Arial, sans-serif" font-size="15" font-weight="bold" fill="#1a1a2e">📖 知识</text>

    <!-- 箭头 -->
    <text x="455" y="35" text-anchor="middle" font-family="Arial, sans-serif" font-size="18" fill="#409EFF" opacity="0.6">→</text>

    <!-- 行动者 -->
    <rect x="480" y="10" width="180" height="40" rx="20" fill="#409EFF" opacity="0.2" stroke="#409EFF" stroke-width="1"/>
    <text x="570" y="35" text-anchor="middle" font-family="Arial, sans-serif" font-size="15" font-weight="bold" fill="#1a1a2e">👨‍🍳 行动者</text>
  </g>

  <!-- 底部说明 -->
  <text x="400" y="470" text-anchor="middle" font-family="Arial, sans-serif" font-size="12" fill="#409EFF" opacity="0.5">从被动工具到主动代理的进化</text>

  <!-- 连接三个面板的虚线 -->
  <line x1="260" y1="210" x2="290" y2="210" stroke="#409EFF" stroke-width="1" stroke-dasharray="4,4" opacity="0.3"/>
  <line x1="510" y1="210" x2="540" y2="210" stroke="#409EFF" stroke-width="1" stroke-dasharray="4,4" opacity="0.3"/>

</svg>