<svg xmlns="http://www.w3.org/2000/svg" viewBox="0 0 800 500" width="800" height="500">
  <defs>
    <linearGradient id="bgGrad" x1="0" y1="0" x2="0" y2="1">
      <stop offset="0%" stop-color="#E8F4FD"/>
      <stop offset="100%" stop-color="#D0ECFA"/>
    </linearGradient>
    <linearGradient id="cardGrad" x1="0" y1="0" x2="0" y2="1">
      <stop offset="0%" stop-color="#FFFFFF"/>
      <stop offset="100%" stop-color="#F0F8FF"/>
    </linearGradient>
  </defs>

  <!-- 背景 -->
  <rect width="800" height="500" fill="url(#bgGrad)" rx="8"/>

  <!-- 标题 -->
  <text x="400" y="32" text-anchor="middle" font-family="sans-serif" font-size="18" font-weight="bold" fill="#1a1a2e">多智能体系统四大核心优势</text>

  <!-- ========== 左上：专业化 ========== -->
  <rect x="30" y="55" width="355" height="195" rx="10" fill="url(#cardGrad)" stroke="#409EFF" stroke-width="1.5"/>
  <rect x="30" y="55" width="355" height="32" rx="10" fill="#409EFF"/>
  <rect x="30" y="75" width="355" height="12" fill="#409EFF"/>
  <text x="207" y="76" text-anchor="middle" font-family="sans-serif" font-size="15" font-weight="bold" fill="#FFFFFF">专业化</text>

  <!-- 智能体1：搜索 -->
  <rect x="55" y="100" width="95" height="60" rx="8" fill="#E8F4FD" stroke="#409EFF" stroke-width="1"/>
  <circle cx="75" cy="120" r="10" fill="#409EFF"/>
  <text x="75" y="124" text-anchor="middle" font-family="sans-serif" font-size="10" fill="#fff">🔍</text>
  <text x="102" y="124" font-family="sans-serif" font-size="11" fill="#1a1a2e">搜索</text>
  <rect x="65" y="138" width="75" height="16" rx="4" fill="#409EFF" opacity="0.15"/>
  <text x="102" y="150" text-anchor="middle" font-family="sans-serif" font-size="10" fill="#409EFF">Sonnet</text>

  <!-- 智能体2：代码 -->
  <rect x="160" y="100" width="95" height="60" rx="8" fill="#E8F4FD" stroke="#409EFF" stroke-width="1"/>
  <circle cx="180" cy="120" r="10" fill="#409EFF"/>
  <text x="180" y="124" text-anchor="middle" font-family="sans-serif" font-size="10" fill="#fff">💻</text>
  <text x="207" y="124" font-family="sans-serif" font-size="11" fill="#1a1a2e">代码</text>
  <rect x="170" y="138" width="75" height="16" rx="4" fill="#409EFF" opacity="0.15"/>
  <text x="207" y="150" text-anchor="middle" font-family="sans-serif" font-size="10" fill="#409EFF">Sonnet</text>

  <!-- 智能体3：编辑 -->
  <rect x="265" y="100" width="95" height="60" rx="8" fill="#E8F4FD" stroke="#409EFF" stroke-width="1"/>
  <circle cx="285" cy="120" r="10" fill="#409EFF"/>
  <text x="285" y="124" text-anchor="middle" font-family="sans-serif" font-size="10" fill="#fff">✏️</text>
  <text x="312" y="124" font-family="sans-serif" font-size="11" fill="#1a1a2e">编辑</text>
  <rect x="275" y="138" width="75" height="16" rx="4" fill="#409EFF" opacity="0.15"/>
  <text x="312" y="150" text-anchor="middle" font-family="sans-serif" font-size="10" fill="#409EFF">Haiku</text>

  <!-- 说明文字 -->
  <text x="207" y="185" text-anchor="middle" font-family="sans-serif" font-size="12" fill="#1a1a2e">各智能体专注不同任务</text>
  <text x="207" y="205" text-anchor="middle" font-family="sans-serif" font-size="12" fill="#1a1a2e">配备专属模型能力</text>

  <!-- 标注 -->
  <rect x="55" y="220" width="80" height="20" rx="4" fill="#409EFF" opacity="0.12"/>
  <text x="95" y="234" text-anchor="middle" font-family="sans-serif" font-size="11" fill="#409EFF">分工明确</text>

  <!-- ========== 右上：并行处理 ========== -->
  <rect x="415" y="55" width="355" height="195" rx="10" fill="url(#cardGrad)" stroke="#409EFF" stroke-width="1.5"/>
  <rect x="415" y="55" width="355" height="32" rx="10" fill="#409EFF"/>
  <rect x="415" y="75" width="355" height="12" fill="#409EFF"/>
  <text x="592" y="76" text-anchor="middle" font-family="sans-serif" font-size="15" font-weight="bold" fill="#FFFFFF">并行处理</text>

  <!-- 三个并行智能体 -->
  <rect x="440" y="100" width="90" height="50" rx="8" fill="#E8F4FD" stroke="#409EFF" stroke-width="1"/>
  <text x="485" y="120" text-anchor="middle" font-family="sans-serif" font-size="11" fill="#1a1a2e">智能体 A</text>
  <text x="485" y="138" text-anchor="middle" font-family="sans-serif" font-size="10" fill="#409EFF">任务 1</text>

  <rect x="545" y="100" width="90" height="50" rx="8" fill="#E8F4FD" stroke="#409EFF" stroke-width="1"/>
  <text x="590" y="120" text-anchor="middle" font-family="sans-serif" font-size="11" fill="#1a1a2e">智能体 B</text>
  <text x="590" y="138" text-anchor="middle" font-family="sans-serif" font-size="10" fill="#409EFF">任务 2</text>

  <rect x="650" y="100" width="90" height="50" rx="8" fill="#E8F4FD" stroke="#409EFF" stroke-width="1"/>
  <text x="695" y="120" text-anchor="middle" font-family="sans-serif" font-size="11" fill="#1a1a2e">智能体 C</text>
  <text x="695" y="138" text-anchor="middle" font-family="sans-serif" font-size="10" fill="#409EFF">任务 3</text>

  <!-- 并行箭头 -->
  <text x="485" y="170" text-anchor="middle" font-family="sans-serif" font-size="14" fill="#409EFF">↓</text>
  <text x="590" y="170" text-anchor="middle" font-family="sans-serif" font-size="14" fill="#409EFF">↓</text>
  <text x="695" y="170" text-anchor="middle" font-family="sans-serif" font-size="14" fill="#409EFF">↓</text>

  <!-- 速度对比 -->
  <rect x="460" y="180" width="120" height="28" rx="6" fill="#1a1a2e" opacity="0.08"/>
  <text x="520" y="198" text-anchor="middle" font-family="sans-serif" font-size="11" fill="#1a1a2e">串行 12s</text>

  <rect x="600" y="180" width="120" height="28" rx="6" fill="#409EFF" opacity="0.2"/>
  <text x="660" y="198" text-anchor="middle" font-family="sans-serif" font-size="11" fill="#409EFF">并行 7s ✓</text>

  <!-- 标注 -->
  <rect x="440" y="220" width="80" height="20" rx="4" fill="#409EFF" opacity="0.12"/>
  <text x="480" y="234" text-anchor="middle" font-family="sans-serif" font-size="11" fill="#409EFF">效率提升</text>

  <!-- ========== 左下：鲁棒性 ========== -->
  <rect x="30" y="275" width="355" height="195" rx="10" fill="url(#cardGrad)" stroke="#409EFF" stroke-width="1.5"/>
  <rect x="30" y="275" width="355" height="32" rx="10" fill="#409EFF"/>
  <rect x="30" y="295" width="355" height="12" fill="#409EFF"/>
  <text x="207" y="296" text-anchor="middle" font-family="sans-serif" font-size="15" font-weight="bold" fill="#FFFFFF">鲁棒性</text>

  <!-- 三个分析师 -->
  <rect x="50" y="320" width="85" height="55" rx="8" fill="#E8F4FD" stroke="#409EFF" stroke-width="1"/>
  <text x="92" y="340" text-anchor="middle" font-family="sans-serif" font-size="11" fill="#1a1a2e">分析师 A</text>
  <text x="92" y="358" text-anchor="middle" font-family="sans-serif" font-size="10" fill="#409EFF">结果 ✓</text>

  <rect x="150" y="320" width="85" height="55" rx="8" fill="#E8F4FD" stroke="#e74c3c" stroke-width="1.5"/>
  <text x="192" y="340" text-anchor="middle" font-family="sans-serif" font-size="11" fill="#1a1a2e">分析师 B</text>
  <text x="192" y="358" text-anchor="middle" font-family="sans-serif" font-size="10" fill="#e74c3c">失败 ✗</text>
  <!-- 划掉线 -->
  <line x1="160" y1="330" x2="225" y2="360" stroke="#e74c3c" stroke-width="2" opacity="0.6"/>

  <rect x="250" y="320" width="85" height="55" rx="8" fill="#E8F4FD" stroke="#409EFF" stroke-width="1"/>
  <text x="292" y="340" text-anchor="middle" font-family="sans-serif" font-size="11" fill="#1a1a2e">分析师 C</text>
  <text x="292" y="358" text-anchor="middle" font-family="sans-serif" font-size="10" fill="#409EFF">结果 ✓</text>

  <!-- 交叉验证流程 -->
  <rect x="120" y="390" width="170" height="28" rx="6" fill="#409EFF" opacity="0.15"/>
  <text x="205" y="408" text-anchor="middle" font-family="sans-serif" font-size="11" fill="#1a1a2e">交叉验证 → 有效结果</text>

  <!-- 箭头 -->
  <text x="92" y="388" text-anchor="middle" font-family="sans-serif" font-size="12" fill="#409EFF">↓</text>
  <text x="292" y="388" text-anchor="middle" font-family="sans-serif" font-size="12" fill="#409EFF">↓</text>

  <!-- 标注 -->
  <rect x="55" y="440" width="80" height="20" rx="4" fill="#409EFF" opacity="0.12"/>
  <text x="95" y="454" text-anchor="middle" font-family="sans-serif" font-size="11" fill="#409EFF">容错机制</text>

  <!-- ========== 右下：涌现智能 ========== -->
  <rect x="415" y="275" width="355" height="195" rx="10" fill="url(#cardGrad)" stroke="#409EFF" stroke-width="1.5"/>
  <rect x="415" y="275" width="355" height="32" rx="10" fill="#409EFF"/>
  <rect x="415" y="295" width="355" height="12" fill="#409EFF"/>
  <text x="592" y="296" text-anchor="middle" font-family="sans-serif" font-size="15" font-weight="bold" fill="#FFFFFF">涌现智能</text>

  <!-- 交互中的智能体 -->
  <circle cx="480" cy="345" r="18" fill="#E8F4FD" stroke="#409EFF" stroke-width="1.5"/>
  <text x="480" y="349" text-anchor="middle" font-family="sans-serif" font-size="10" fill="#1a1a2e">A</text>

  <circle cx="540" cy="330" r="18" fill="#E8F4FD" stroke="#409EFF" stroke-width="1.5"/>
  <text x="540" y="334" text-anchor="middle" font-family="sans-serif" font-size="10" fill="#1a1a2e">B</text>

  <circle cx="540" cy="365" r="18" fill="#E8F4FD" stroke="#409EFF" stroke-width="1.5"/>
  <text x="540" y="369" text-anchor="middle" font-family="sans-serif" font-size="10" fill="#1a1a2e">C</text>

  <circle cx="600" cy="345" r="18" fill="#E8F4FD" stroke="#409EFF" stroke-width="1.5"/>
  <text x="600" y="349" text-anchor="middle" font-family="sans-serif" font-size="10" fill="#1a1a2e">D</text>

  <!-- 交互连线 -->
  <line x1="498" y1="340" x2="522" y2="333" stroke="#409EFF" stroke-width="1" opacity="0.4"/>
  <line x1="498" y1="350" x2="522" y2="362" stroke="#409EFF" stroke-width="1" opacity="0.4"/>
  <line x1="558" y1="335" x2="582" y2="342" stroke="#409EFF" stroke-width="1" opacity="0.4"/>
  <line x1="558" y1="360" x2="582" y2="348" stroke="#409EFF" stroke-width="1" opacity="0.4"/>

  <!-- 发光灯泡 -->
  <circle cx="660" cy="345" r="28" fill="#409EFF" opacity="0.08"/>
  <circle cx="660" cy="345" r="22" fill="#409EFF" opacity="0.15"/>
  <circle cx="660" cy="345" r="16" fill="#409EFF" opacity="0.25"/>
  <text x="660" y="350" text-anchor="middle" font-family="sans-serif" font-size="16">💡</text>

  <!-- 说明文字 -->
  <text x="540" y="410" text-anchor="middle" font-family="sans-serif" font-size="11" fill="#1a1a2e">简单交互 → 集体智慧涌现</text>

  <!-- 标注 -->
  <rect x="440" y="440" width="80" height="20" rx="4" fill="#409EFF" opacity="0.12"/>
  <text x="480" y="454" text-anchor="middle" font-family="sans-serif" font-size="11" fill="#409EFF">协同创新</text>

  <!-- 底部装饰线 -->
  <line x1="30" y1="478" x2="770" y2="478" stroke="#409EFF" stroke-width="1" opacity="0.2"/>
  <text x="400" y="493" text-anchor="middle" font-family="sans-serif" font-size="10" fill="#409EFF" opacity="0.6">多智能体系统 · 协同智能框架</text>
</svg>